<svg width="77" height="59" viewBox="0 0 77 59" fill="none" xmlns="http://www.w3.org/2000/svg">
<circle cx="38.5" cy="25.5531" r="25.5531" fill="black"/>
<path d="M38.9259 51.021V58.5166L53.406 46.1659L38.9259 51.021Z" fill="black"/>
<path d="M9.8239 16.1294H12.5496V28.1394H9.8239V23.4887H3.79337V28.1394H1.06771V16.1294H3.79337V21.1038H9.8239V16.1294ZM13.7365 25.7885C13.7365 25.0276 13.9977 24.4313 14.5201 23.9998C15.0425 23.5569 15.9283 23.2502 17.1776 23.0799L19.8862 22.7051C19.8862 21.9555 19.3127 21.5807 18.1657 21.5807C17.6205 21.5807 17.2003 21.6886 16.905 21.9044C16.6098 22.1202 16.4621 22.4268 16.4621 22.8243H13.9068C13.9068 21.7568 14.3043 20.9164 15.0993 20.3031C15.9056 19.6785 16.9278 19.3661 18.1657 19.3661C19.449 19.3661 20.5109 19.6955 21.3513 20.3542C22.1917 21.0129 22.6119 22.0066 22.6119 23.3354V25.7544H23.8555V28.1394H21.9645C21.5557 28.1394 21.2377 28.0315 21.0106 27.8157C20.7948 27.5886 20.6869 27.2706 20.6869 26.8617V26.6914L21.1128 25.6692H20.4314C20.2497 26.4869 19.8862 27.1343 19.3411 27.6113C18.8073 28.0769 17.9839 28.3097 16.871 28.3097C16.2463 28.3097 15.7126 28.2246 15.2696 28.0542C14.8267 27.8838 14.503 27.6567 14.2986 27.3728C14.0942 27.0889 13.9466 26.822 13.8557 26.5721C13.7762 26.3109 13.7365 26.0497 13.7365 25.7885ZM16.4621 25.2774C16.4621 25.709 16.7744 25.9248 17.3991 25.9248C18.16 25.9248 18.7619 25.7771 19.2048 25.4819C19.6591 25.1752 19.8862 24.7607 19.8862 24.2383L17.6887 24.5449C17.2344 24.613 16.9164 24.6982 16.7347 24.8004C16.553 24.8913 16.4621 25.0503 16.4621 25.2774ZM30.0528 21.7511C29.2578 21.7511 28.6502 22.001 28.23 22.5007C27.8098 22.989 27.5997 23.8067 27.5997 24.9538V28.1394H24.874V19.5365H27.5997V20.5757L27.0886 22.1088H27.77C27.9517 21.2911 28.3208 20.6324 28.8773 20.1327C29.4338 19.6217 30.1493 19.3661 31.0238 19.3661C32.1368 19.3661 32.9999 19.7239 33.6132 20.4394C34.2378 21.1549 34.5501 22.1713 34.5501 23.4887V28.1394H31.8245V23.9146C31.8245 23.131 31.6882 22.5745 31.4156 22.2451C31.1544 21.9158 30.7001 21.7511 30.0528 21.7511ZM45.8224 19.5365H46.5719V21.9215H45.9927C45.6179 21.9215 45.351 21.9726 45.192 22.0748C45.351 22.2906 45.4305 22.6199 45.4305 23.0628C45.4305 23.8351 45.0955 24.4938 44.4255 25.0389C43.7668 25.5841 42.8071 26.0724 41.5465 26.504C42.2506 26.4585 42.8696 26.4926 43.4033 26.6062C43.9485 26.7198 44.4027 26.9583 44.7662 27.3217C45.1409 27.6737 45.3283 28.1394 45.3283 28.7186C45.3283 29.1388 45.2488 29.5022 45.0898 29.8088C44.9308 30.1155 44.664 30.371 44.2892 30.5754C43.9258 30.7912 43.5112 30.9616 43.0456 31.0865C42.5913 31.2114 41.978 31.308 41.2058 31.3761C40.4449 31.4442 39.6726 31.4897 38.889 31.5124C38.1053 31.5351 37.1286 31.5465 35.9589 31.5465V29.1615C38.8208 29.1615 40.6379 29.1047 41.4102 28.9911C42.1938 28.8776 42.5856 28.5937 42.5856 28.1394C42.5856 27.8555 42.4266 27.651 42.1086 27.5261C41.7906 27.3898 41.3591 27.3387 40.814 27.3728C40.2688 27.3955 39.6896 27.4523 39.0763 27.5431C38.4631 27.6226 37.81 27.7192 37.1173 27.8327C37.0037 27.8555 36.9185 27.8725 36.8617 27.8838L36.5721 26.3507C38.9571 26.1008 40.7231 25.8396 41.8701 25.567V24.8856C41.0752 25.1695 40.2915 25.3456 39.5193 25.4137C38.7583 25.4819 38.0656 25.4421 37.4409 25.2945C36.8277 25.1468 36.3336 24.8515 35.9589 24.4086C35.5841 23.9657 35.3967 23.4035 35.3967 22.7221C35.3967 21.6319 35.8453 20.8028 36.7425 20.2349C37.651 19.6557 38.8208 19.3661 40.2518 19.3661C41.6941 19.3661 42.8298 19.6728 43.6589 20.2861C44.045 19.7863 44.7662 19.5365 45.8224 19.5365ZM40.4221 24.0338C41.944 24.0338 42.7049 23.6534 42.7049 22.8925C42.7049 22.1316 41.944 21.7511 40.4221 21.7511C38.889 21.7511 38.1224 22.1316 38.1224 22.8925C38.1224 23.6534 38.889 24.0338 40.4221 24.0338ZM47.0919 23.8294C47.0919 22.3871 47.5462 21.2855 48.4547 20.5246C49.3633 19.7523 50.5274 19.3661 51.947 19.3661C53.3666 19.3661 54.525 19.7523 55.4222 20.5246C56.3308 21.2855 56.785 22.3871 56.785 23.8294C56.785 25.2717 56.3308 26.379 55.4222 27.1513C54.525 27.9236 53.3666 28.3097 51.947 28.3097C50.5274 28.3097 49.3633 27.9293 48.4547 27.1684C47.5462 26.3961 47.0919 25.2831 47.0919 23.8294ZM49.8176 23.8294C49.8176 24.5335 50.0049 25.0616 50.3797 25.4137C50.7545 25.7544 51.2769 25.9248 51.947 25.9248C52.6057 25.9248 53.1224 25.7544 53.4972 25.4137C53.872 25.0616 54.0594 24.5335 54.0594 23.8294C54.0594 23.1366 53.872 22.6199 53.4972 22.2792C53.1224 21.9271 52.6057 21.7511 51.947 21.7511C51.2769 21.7511 50.7545 21.9271 50.3797 22.2792C50.0049 22.6199 49.8176 23.1366 49.8176 23.8294ZM62.3069 25.9248C63.1019 25.9248 63.7095 25.6806 64.1297 25.1922C64.5499 24.6925 64.76 23.8692 64.76 22.7221V19.5365H67.4857V28.1394H64.76V27.1002L65.2711 25.567H64.5896C64.4079 26.3847 64.0388 27.0491 63.4823 27.5602C62.9259 28.0599 62.2104 28.3097 61.3359 28.3097C60.2229 28.3097 59.3541 27.952 58.7295 27.2365C58.1162 26.521 57.8096 25.5046 57.8096 24.1872V19.5365H60.5352V23.7613C60.5352 24.5449 60.6658 25.1014 60.927 25.4307C61.1996 25.7601 61.6596 25.9248 62.3069 25.9248ZM73.2772 25.9248L76.4457 25.7544V28.1394L71.9995 28.3097C71.5339 28.3211 71.1761 28.2018 70.9263 27.952C70.6764 27.7021 70.5515 27.3387 70.5515 26.8617V21.9215H68.5073V19.5365H70.5515V17.9181L73.2772 17.0664V19.5365H76.105V21.9215H73.2772V25.9248Z" fill="white"/>
<path fill-rule="evenodd" clip-rule="evenodd" d="M47.9517 37.3075C45.0569 38.5179 41.7098 39.209 38.1436 39.209C34.8995 39.209 31.8366 38.6371 29.1306 37.6225C31.6499 39.6628 34.8588 40.885 38.3531 40.885C42.0238 40.885 45.3795 39.5363 47.9517 37.3075Z" fill="white"/>
</svg>
