<svg width="177" height="134" viewBox="0 0 177 134" fill="none" xmlns="http://www.w3.org/2000/svg">
<circle cx="88.163" cy="58.5153" r="58.5153" fill="#FAD202" fill-opacity="0.95"/>
<path d="M89.1383 116.836V134L122.297 105.718L89.1383 116.836Z" fill="#FAD202" fill-opacity="0.95"/>
<path d="M22.4962 35.8762H28.7379V63.3784H22.4962V52.7286H8.68662V63.3784H2.44499V35.8762H8.68662V47.2672H22.4962V35.8762ZM31.4558 57.995C31.4558 56.2526 32.0539 54.8872 33.2502 53.8989C34.4466 52.8847 36.4751 52.1825 39.3358 51.7924L45.5384 50.9342C45.5384 49.2177 44.2251 48.3595 41.5984 48.3595C40.3501 48.3595 39.3878 48.6066 38.7117 49.1007C38.0355 49.5948 37.6974 50.297 37.6974 51.2072H31.8459C31.8459 48.7626 32.7561 46.8381 34.5766 45.4337C36.4231 44.0034 38.7637 43.2882 41.5984 43.2882C44.5372 43.2882 46.9688 44.0424 48.8933 45.5508C50.8178 47.0592 51.7801 49.3347 51.7801 52.3775V57.917H54.6278V63.3784H50.2977C49.3614 63.3784 48.6333 63.1314 48.1131 62.6372C47.619 62.1171 47.3719 61.3889 47.3719 60.4527V60.0626L48.3472 57.7219H46.7868C46.3707 59.5944 45.5384 61.0768 44.2901 62.1691C43.0678 63.2354 41.1823 63.7685 38.6336 63.7685C37.2033 63.7685 35.981 63.5735 34.9667 63.1834C33.9524 62.7933 33.2112 62.2731 32.7431 61.623C32.275 60.9728 31.9369 60.3616 31.7288 59.7895C31.5468 59.1913 31.4558 58.5932 31.4558 57.995ZM37.6974 56.8247C37.6974 57.813 38.4126 58.3071 39.843 58.3071C41.5854 58.3071 42.9638 57.969 43.978 57.2928C45.0183 56.5906 45.5384 55.6414 45.5384 54.4451L40.5061 55.1473C39.4659 55.3033 38.7377 55.4984 38.3216 55.7324C37.9055 55.9405 37.6974 56.3046 37.6974 56.8247ZM68.8193 48.7496C66.9988 48.7496 65.6075 49.3217 64.6452 50.466C63.683 51.5843 63.2018 53.4568 63.2018 56.0835V63.3784H56.9602V43.6783H63.2018V46.0579L62.0315 49.5688H63.5919C64.008 47.6963 64.8533 46.1879 66.1276 45.0436C67.4019 43.8733 69.0404 43.2882 71.0429 43.2882C73.5916 43.2882 75.5681 44.1074 76.9724 45.7458C78.4028 47.3842 79.118 49.7118 79.118 52.7286V63.3784H72.8764V53.7039C72.8764 51.9094 72.5643 50.6351 71.9401 49.8809C71.342 49.1267 70.3017 48.7496 68.8193 48.7496ZM104.931 43.6783H106.647V49.1397H105.321C104.463 49.1397 103.852 49.2567 103.487 49.4908C103.852 49.9849 104.034 50.7391 104.034 51.7534C104.034 53.5218 103.266 55.0302 101.732 56.2786C100.224 57.5269 98.026 58.6452 95.1393 59.6334C96.7517 59.5294 98.1691 59.6074 99.3914 59.8675C100.64 60.1276 101.68 60.6737 102.512 61.5059C103.37 62.3121 103.8 63.3784 103.8 64.7048C103.8 65.667 103.618 66.4992 103.253 67.2014C102.889 67.9036 102.278 68.4888 101.42 68.9569C100.588 69.451 99.6385 69.8411 98.5722 70.1272C97.5319 70.4133 96.1276 70.6343 94.3591 70.7904C92.6166 70.9464 90.8482 71.0504 89.0537 71.1024C87.2592 71.1544 85.0227 71.1805 82.344 71.1805V65.719C88.8977 65.719 93.0588 65.589 94.8272 65.3289C96.6217 65.0689 97.5189 64.4187 97.5189 63.3784C97.5189 62.7282 97.1548 62.2601 96.4266 61.9741C95.6984 61.662 94.7102 61.5449 93.4619 61.623C92.2135 61.675 90.8872 61.805 89.4828 62.0131C88.0785 62.1951 86.5831 62.4162 84.9966 62.6762C84.7366 62.7282 84.5415 62.7673 84.4115 62.7933L83.7483 59.2823C89.2097 58.7102 93.2538 58.112 95.8805 57.4879V55.9275C94.06 56.5776 92.2655 56.9807 90.4971 57.1368C88.7546 57.2928 87.1682 57.2018 85.7378 56.8637C84.3335 56.5256 83.2022 55.8495 82.344 54.8352C81.4857 53.8209 81.0566 52.5336 81.0566 50.9732C81.0566 48.4765 82.0839 46.578 84.1384 45.2777C86.219 43.9513 88.8977 43.2882 92.1745 43.2882C95.4774 43.2882 98.0781 43.9904 99.9766 45.3947C100.861 44.2504 102.512 43.6783 104.931 43.6783ZM92.5646 53.977C96.0495 53.977 97.792 53.1057 97.792 51.3633C97.792 49.6208 96.0495 48.7496 92.5646 48.7496C89.0537 48.7496 87.2982 49.6208 87.2982 51.3633C87.2982 53.1057 89.0537 53.977 92.5646 53.977ZM107.838 53.5088C107.838 50.206 108.878 47.6833 110.959 45.9409C113.039 44.1724 115.705 43.2882 118.956 43.2882C122.207 43.2882 124.859 44.1724 126.914 45.9409C128.995 47.6833 130.035 50.206 130.035 53.5088C130.035 56.8117 128.995 59.3474 126.914 61.1158C124.859 62.8843 122.207 63.7685 118.956 63.7685C115.705 63.7685 113.039 62.8973 110.959 61.1548C108.878 59.3864 107.838 56.8377 107.838 53.5088ZM114.08 53.5088C114.08 55.1213 114.509 56.3306 115.367 57.1368C116.225 57.917 117.422 58.3071 118.956 58.3071C120.464 58.3071 121.648 57.917 122.506 57.1368C123.364 56.3306 123.793 55.1213 123.793 53.5088C123.793 51.9224 123.364 50.7391 122.506 49.9589C121.648 49.1527 120.464 48.7496 118.956 48.7496C117.422 48.7496 116.225 49.1527 115.367 49.9589C114.509 50.7391 114.08 51.9224 114.08 53.5088ZM142.68 58.3071C144.5 58.3071 145.891 57.7479 146.854 56.6297C147.816 55.4854 148.297 53.5999 148.297 50.9732V43.6783H154.539V63.3784H148.297V60.9988L149.467 57.4879H147.907C147.491 59.3604 146.646 60.8818 145.371 62.0521C144.097 63.1964 142.459 63.7685 140.456 63.7685C137.907 63.7685 135.918 62.9493 134.487 61.3109C133.083 59.6724 132.381 57.3448 132.381 54.3281V43.6783H138.623V53.3528C138.623 55.1473 138.922 56.4216 139.52 57.1758C140.144 57.93 141.197 58.3071 142.68 58.3071ZM167.801 58.3071L175.057 57.917V63.3784L164.875 63.7685C163.809 63.7945 162.99 63.5215 162.418 62.9493C161.845 62.3772 161.559 61.5449 161.559 60.4527V49.1397H156.878V43.6783H161.559V39.9723L167.801 38.0218V43.6783H174.277V49.1397H167.801V58.3071Z" fill="white"/>
<path fill-rule="evenodd" clip-rule="evenodd" d="M109.807 85.4324C103.178 88.2041 95.5131 89.7868 87.3467 89.7868C79.9177 89.7868 72.9039 88.4771 66.7074 86.1538C72.4764 90.8259 79.8246 93.6246 87.8265 93.6246C96.2321 93.6246 103.916 90.5363 109.807 85.4324Z" fill="white"/>
</svg>
