<svg width="839" height="638" viewBox="0 0 839 638" fill="none" xmlns="http://www.w3.org/2000/svg">
<circle cx="419.5" cy="278.429" r="278.429" fill="black"/>
<path d="M424.141 555.93V637.603L581.917 503.029L424.141 555.93Z" fill="black"/>
<path d="M107.042 173.202V172.202H106.042V173.202H107.042ZM136.741 173.202H137.741V172.202H136.741V173.202ZM136.741 304.064V305.064H137.741V304.064H136.741ZM107.042 304.064H106.042V305.064H107.042V304.064ZM107.042 253.39H108.042V252.39H107.042V253.39ZM41.333 253.39V252.39H40.333V253.39H41.333ZM41.333 304.064V305.064H42.333V304.064H41.333ZM11.6339 304.064H10.6339V305.064H11.6339V304.064ZM11.6339 173.202V172.202H10.6339V173.202H11.6339ZM41.333 173.202H42.333V172.202H41.333V173.202ZM41.333 227.403H40.333V228.403H41.333V227.403ZM107.042 227.403V228.403H108.042V227.403H107.042ZM107.042 174.202H136.741V172.202H107.042V174.202ZM135.741 173.202V304.064H137.741V173.202H135.741ZM136.741 303.064H107.042V305.064H136.741V303.064ZM108.042 304.064V253.39H106.042V304.064H108.042ZM107.042 252.39H41.333V254.39H107.042V252.39ZM40.333 253.39V304.064H42.333V253.39H40.333ZM41.333 303.064H11.6339V305.064H41.333V303.064ZM12.6339 304.064V173.202H10.6339V304.064H12.6339ZM11.6339 174.202H41.333V172.202H11.6339V174.202ZM40.333 173.202V227.403H42.333V173.202H40.333ZM41.333 228.403H107.042V226.403H41.333V228.403ZM108.042 227.403V173.202H106.042V227.403H108.042ZM158.212 258.959L158.849 259.73L158.859 259.721L158.212 258.959ZM187.169 248.935L187.304 249.926L187.306 249.926L187.169 248.935ZM216.682 244.852L216.82 245.842L217.682 245.723V244.852H216.682ZM184.199 236.127L183.609 235.32L183.609 235.32L184.199 236.127ZM179.373 246.151V247.151H180.373V246.151H179.373ZM151.53 246.151H150.53V247.151H151.53V246.151ZM164.523 218.679L165.134 219.471L165.136 219.47L164.523 218.679ZM232.646 219.236L232.029 220.023L232.029 220.023L232.646 219.236ZM246.382 278.077H245.382V279.077H246.382V278.077ZM259.932 278.077H260.932V277.077H259.932V278.077ZM259.932 304.064V305.064H260.932V304.064H259.932ZM228.933 300.537L228.208 301.226L228.226 301.245L228.245 301.262L228.933 300.537ZM225.407 288.287L224.484 287.902L224.407 288.087V288.287H225.407ZM230.047 277.149L230.97 277.534L231.547 276.149H230.047V277.149ZM222.622 277.149V276.149H221.82L221.646 276.932L222.622 277.149ZM210.743 298.31L211.4 299.064L211.401 299.063L210.743 298.31ZM155.799 295.711L156.611 295.127L156.611 295.127L155.799 295.711ZM150.973 286.987L150.017 287.278L150.024 287.304L150.033 287.329L150.973 286.987ZM209.258 275.108L209.812 275.94L209.817 275.936L209.258 275.108ZM216.682 261.557H217.682V260.408L216.544 260.567L216.682 261.557ZM192.738 264.899L192.599 263.908L192.589 263.91L192.738 264.899ZM182.343 267.683L182.79 268.577L182.812 268.566L182.833 268.554L182.343 267.683ZM150.674 278.449C150.674 270.415 153.417 264.217 158.849 259.73L157.575 258.188C151.623 263.105 148.674 269.901 148.674 278.449H150.674ZM158.859 259.721C164.328 255.084 173.745 251.775 187.304 249.926L187.034 247.944C173.369 249.808 163.481 253.181 157.566 258.196L158.859 259.721ZM187.306 249.926L216.82 245.842L216.545 243.861L187.032 247.945L187.306 249.926ZM217.682 244.852C217.682 240.468 215.98 237.073 212.543 234.826C209.179 232.628 204.261 231.601 197.935 231.601V233.601C204.107 233.601 208.563 234.615 211.449 236.501C214.26 238.338 215.682 241.068 215.682 244.852H217.682ZM197.935 231.601C191.882 231.601 187.063 232.796 183.609 235.32L184.789 236.935C187.77 234.757 192.108 233.601 197.935 233.601V231.601ZM183.609 235.32C180.109 237.878 178.373 241.533 178.373 246.151H180.373C180.373 242.107 181.854 239.08 184.789 236.935L183.609 235.32ZM179.373 245.151H151.53V247.151H179.373V245.151ZM152.53 246.151C152.53 234.806 156.735 225.951 165.134 219.471L163.913 217.887C154.987 224.773 150.53 234.232 150.53 246.151H152.53ZM165.136 219.47C173.712 212.827 184.62 209.47 197.935 209.47V207.47C184.274 207.47 172.907 210.92 163.911 217.889L165.136 219.47ZM197.935 209.47C211.741 209.47 223.081 213.01 232.029 220.023L233.263 218.449C223.896 211.108 212.095 207.47 197.935 207.47V209.47ZM232.029 220.023C240.886 226.965 245.382 237.466 245.382 251.72H247.382C247.382 237.017 242.72 225.862 233.263 218.449L232.029 220.023ZM245.382 251.72V278.077H247.382V251.72H245.382ZM246.382 279.077H259.932V277.077H246.382V279.077ZM258.932 278.077V304.064H260.932V278.077H258.932ZM259.932 303.064H239.328V305.064H259.932V303.064ZM239.328 303.064C235.049 303.064 231.86 301.938 229.622 299.812L228.245 301.262C230.957 303.839 234.698 305.064 239.328 305.064V303.064ZM229.658 299.849C227.532 297.611 226.407 294.422 226.407 290.143H224.407C224.407 294.773 225.632 298.514 228.208 301.226L229.658 299.849ZM226.407 290.143V288.287H224.407V290.143H226.407ZM226.33 288.671L230.97 277.534L229.124 276.765L224.484 287.902L226.33 288.671ZM230.047 276.149H222.622V278.149H230.047V276.149ZM221.646 276.932C219.705 285.668 215.84 292.521 210.084 297.557L211.401 299.063C217.525 293.704 221.58 286.45 223.598 277.366L221.646 276.932ZM210.085 297.556C204.531 302.402 195.845 304.92 183.828 304.92V306.92C196.065 306.92 205.323 304.365 211.4 299.064L210.085 297.556ZM183.828 304.92C177.108 304.92 171.42 304.003 166.739 302.203L166.021 304.069C170.991 305.981 176.936 306.92 183.828 306.92V304.92ZM166.739 302.203C162.031 300.392 158.691 298.016 156.611 295.127L154.988 296.296C157.363 299.594 161.076 302.168 166.021 304.069L166.739 302.203ZM156.611 295.127C154.421 292.086 152.863 289.259 151.913 286.645L150.033 287.329C151.063 290.16 152.722 293.149 154.988 296.296L156.611 295.127ZM151.93 286.696C151.091 283.94 150.674 281.192 150.674 278.449H148.674C148.674 281.398 149.123 284.342 150.017 287.278L151.93 286.696ZM178.373 272.88C178.373 275.508 179.345 277.603 181.357 278.993C183.302 280.337 186.095 280.934 189.582 280.934V278.934C186.263 278.934 183.952 278.355 182.494 277.348C181.103 276.387 180.373 274.955 180.373 272.88H178.373ZM189.582 280.934C197.989 280.934 204.766 279.304 209.812 275.94L208.703 274.276C204.098 277.346 197.757 278.934 189.582 278.934V280.934ZM209.817 275.936C215.026 272.42 217.682 267.601 217.682 261.557H215.682C215.682 266.898 213.389 271.113 208.698 274.279L209.817 275.936ZM216.544 260.567L192.599 263.908L192.876 265.889L216.821 262.548L216.544 260.567ZM192.589 263.91C187.629 264.654 184.005 265.601 181.853 266.811L182.833 268.554C184.641 267.537 187.947 266.628 192.886 265.887L192.589 263.91ZM181.896 266.788C180.749 267.362 179.851 268.172 179.247 269.228C178.647 270.278 178.373 271.51 178.373 272.88H180.373C180.373 271.775 180.593 270.904 180.984 270.221C181.37 269.544 181.957 268.994 182.79 268.577L181.896 266.788ZM307.597 242.624L308.355 243.276L308.362 243.268L307.597 242.624ZM300.729 304.064V305.064H301.729V304.064H300.729ZM271.03 304.064H270.03V305.064H271.03V304.064ZM271.03 210.326V209.326H270.03V210.326H271.03ZM300.729 210.326H301.729V209.326H300.729V210.326ZM300.729 221.649L301.678 221.965L301.729 221.811V221.649H300.729ZM295.16 238.355L294.212 238.039L293.773 239.355H295.16V238.355ZM302.585 238.355V239.355H303.387L303.561 238.572L302.585 238.355ZM314.65 216.823L315.319 217.567L315.327 217.56L314.65 216.823ZM366.253 220.164L365.493 220.815L365.499 220.822L366.253 220.164ZM376.462 304.064V305.064H377.462V304.064H376.462ZM346.763 304.064H345.763V305.064H346.763V304.064ZM342.308 239.84L341.524 240.461L341.531 240.469L341.537 240.477L342.308 239.84ZM327.458 233.457C318.571 233.457 311.641 236.261 306.831 241.981L308.362 243.268C312.71 238.098 319.021 235.457 327.458 235.457V233.457ZM306.839 241.972C302.021 247.57 299.729 256.784 299.729 269.353H301.729C301.729 256.926 304.015 248.32 308.355 243.276L306.839 241.972ZM299.729 269.353V304.064H301.729V269.353H299.729ZM300.729 303.064H271.03V305.064H300.729V303.064ZM272.03 304.064V210.326H270.03V304.064H272.03ZM271.03 211.326H300.729V209.326H271.03V211.326ZM299.729 210.326V221.649H301.729V210.326H299.729ZM299.78 221.333L294.212 238.039L296.109 238.671L301.678 221.965L299.78 221.333ZM295.16 239.355H302.585V237.355H295.16V239.355ZM303.561 238.572C305.502 229.84 309.428 222.856 315.319 217.567L313.982 216.079C307.745 221.68 303.628 229.05 301.609 238.138L303.561 238.572ZM315.327 217.56C321.177 212.187 328.718 209.47 338.038 209.47V207.47C328.302 207.47 320.251 210.322 313.974 216.087L315.327 217.56ZM338.038 209.47C349.932 209.47 359.036 213.281 365.493 220.815L367.012 219.513C360.105 211.455 350.399 207.47 338.038 207.47V209.47ZM365.499 220.822C372.094 228.376 375.462 239.184 375.462 253.39H377.462C377.462 238.887 374.023 227.545 367.006 219.507L365.499 220.822ZM375.462 253.39V304.064H377.462V253.39H375.462ZM376.462 303.064H346.763V305.064H376.462V303.064ZM347.763 304.064V258.031H345.763V304.064H347.763ZM347.763 258.031C347.763 249.43 346.278 243.068 343.078 239.202L341.537 240.477C344.278 243.789 345.763 249.554 345.763 258.031H347.763ZM343.091 239.218C339.971 235.285 334.65 233.457 327.458 233.457V235.457C334.374 235.457 338.952 237.218 341.524 240.461L343.091 239.218ZM507.452 210.326H508.452V209.326H507.452V210.326ZM507.452 236.313V237.313H508.452V236.313H507.452ZM492.417 237.984L491.877 237.143L490.98 237.719L491.612 238.577L492.417 237.984ZM484.064 270.281L483.433 269.506L483.427 269.511L484.064 270.281ZM452.695 286.245L452.371 285.299L452.759 287.243L452.695 286.245ZM472.927 287.358L472.719 288.337L472.723 288.337L472.927 287.358ZM487.777 295.154L487.07 295.862L487.081 295.873L487.092 295.883L487.777 295.154ZM491.304 322.255L492.191 322.715L492.191 322.715L491.304 322.255ZM482.579 330.608L482.101 329.73L482.085 329.739L482.069 329.748L482.579 330.608ZM469.029 336.176L468.77 335.211L468.764 335.212L469.029 336.176ZM448.982 339.332L448.894 338.336L448.893 338.336L448.982 339.332ZM423.738 340.817L423.767 341.816L423.767 341.816L423.738 340.817ZM391.812 341.188H390.812V342.188H391.812V341.188ZM391.812 315.201V314.201H390.812V315.201H391.812ZM451.21 313.345L451.066 312.356L451.064 312.356L451.21 313.345ZM458.82 297.382L458.426 298.301L458.44 298.307L458.455 298.313L458.82 297.382ZM444.713 295.711L444.755 296.71L444.765 296.71L444.775 296.709L444.713 295.711ZM425.78 297.568L425.908 298.559L425.917 298.558L425.926 298.557L425.78 297.568ZM404.434 300.723L404.272 299.736L404.255 299.739L404.238 299.742L404.434 300.723ZM401.649 301.28L400.667 301.466L400.854 302.459L401.845 302.26L401.649 301.28ZM398.494 284.574L398.39 283.58L397.31 283.693L397.511 284.76L398.494 284.574ZM456.221 276.036L456.453 277.009L457.221 276.826V276.036H456.221ZM456.221 268.611H457.221V267.192L455.885 267.669L456.221 268.611ZM430.606 274.365L430.518 273.369L430.517 273.369L430.606 274.365ZM407.96 273.066L407.726 274.038L407.73 274.039L407.96 273.066ZM391.812 263.414L392.575 262.768L392.575 262.768L391.812 263.414ZM400.35 217.937L400.885 218.782L400.888 218.78L400.35 217.937ZM475.712 218.494L475.117 219.298L475.904 219.88L476.503 219.105L475.712 218.494ZM499.285 211.326H507.452V209.326H499.285V211.326ZM506.452 210.326V236.313H508.452V210.326H506.452ZM507.452 235.313H501.141V237.313H507.452V235.313ZM501.141 235.313C497.022 235.313 493.864 235.865 491.877 237.143L492.958 238.825C494.435 237.875 497.094 237.313 501.141 237.313V235.313ZM491.612 238.577C493.159 240.676 494.016 244.01 494.016 248.75H496.016C496.016 243.837 495.14 239.993 493.222 237.39L491.612 238.577ZM494.016 248.75C494.016 256.825 490.532 263.73 483.433 269.506L484.696 271.057C492.199 264.953 496.016 257.503 496.016 248.75H494.016ZM483.427 269.511C476.38 275.343 466.049 280.616 452.371 285.299L453.019 287.191C466.812 282.469 477.395 277.099 484.702 271.052L483.427 269.511ZM452.759 287.243C460.365 286.752 467.014 287.123 472.719 288.337L473.135 286.38C467.208 285.119 460.369 284.748 452.63 285.247L452.759 287.243ZM472.723 288.337C478.489 289.539 483.259 292.051 487.07 295.862L488.484 294.447C484.375 290.338 479.245 287.653 473.131 286.379L472.723 288.337ZM487.092 295.883C490.948 299.506 492.902 304.302 492.902 310.375H494.902C494.902 303.827 492.773 298.476 488.461 294.426L487.092 295.883ZM492.902 310.375C492.902 314.828 492.06 318.623 490.416 321.795L492.191 322.715C494.012 319.204 494.902 315.08 494.902 310.375H492.902ZM490.416 321.795C488.795 324.921 486.051 327.575 482.101 329.73L483.058 331.486C487.275 329.186 490.348 326.271 492.191 322.715L490.416 321.795ZM482.069 329.748C478.198 332.046 473.768 333.87 468.77 335.211L469.288 337.142C474.438 335.761 479.041 333.871 483.09 331.468L482.069 329.748ZM468.764 335.212C463.897 336.551 457.282 337.596 448.894 338.336L449.07 340.328C457.512 339.583 464.262 338.525 469.294 337.141L468.764 335.212ZM448.893 338.336C440.623 339.077 432.228 339.57 423.709 339.817L423.767 341.816C432.325 341.568 440.76 341.072 449.072 340.328L448.893 338.336ZM423.709 339.817C415.184 340.064 404.552 340.188 391.812 340.188V342.188C404.563 342.188 415.215 342.064 423.767 341.816L423.709 339.817ZM392.812 341.188V315.201H390.812V341.188H392.812ZM391.812 316.201C422.973 316.201 442.853 315.585 451.355 314.335L451.064 312.356C442.737 313.58 423.019 314.201 391.812 314.201V316.201ZM451.353 314.335C455.692 313.706 459.079 312.59 461.402 310.907C463.777 309.186 465.018 306.883 465.018 304.064H463.018C463.018 306.195 462.124 307.914 460.229 309.287C458.283 310.697 455.266 311.747 451.066 312.356L451.353 314.335ZM465.018 304.064C465.018 302.318 464.524 300.766 463.508 299.459C462.501 298.166 461.033 297.177 459.186 296.451L458.455 298.313C460.072 298.948 461.203 299.754 461.929 300.687C462.645 301.608 463.018 302.717 463.018 304.064H465.018ZM459.214 296.463C455.546 294.891 450.666 294.337 444.651 294.713L444.775 296.709C450.64 296.343 455.165 296.903 458.426 298.301L459.214 296.463ZM444.671 294.712C438.692 294.961 432.346 295.584 425.633 296.578L425.926 298.557C432.579 297.571 438.854 296.956 444.755 296.71L444.671 294.712ZM425.651 296.576C418.957 297.444 411.83 298.497 404.272 299.736L404.595 301.71C412.134 300.474 419.239 299.424 425.908 298.559L425.651 296.576ZM404.238 299.742C403 299.99 402.072 300.176 401.453 300.299L401.845 302.26C402.464 302.137 403.392 301.951 404.63 301.704L404.238 299.742ZM402.632 301.094L399.476 284.389L397.511 284.76L400.667 301.466L402.632 301.094ZM398.598 285.569C424.593 282.845 443.889 279.994 456.453 277.009L455.99 275.063C443.557 278.017 424.368 280.858 398.39 283.58L398.598 285.569ZM457.221 276.036V268.611H455.221V276.036H457.221ZM455.885 267.669C447.296 270.737 438.841 272.635 430.518 273.369L430.694 275.361C439.201 274.611 447.822 272.672 456.558 269.553L455.885 267.669ZM430.517 273.369C422.313 274.104 414.874 273.672 408.19 272.093L407.73 274.039C414.659 275.677 422.317 276.111 430.695 275.361L430.517 273.369ZM408.194 272.094C401.7 270.53 396.509 267.417 392.575 262.768L391.048 264.059C395.281 269.062 400.856 272.384 407.726 274.038L408.194 272.094ZM392.575 262.768C388.67 258.153 386.686 252.269 386.686 245.037H384.686C384.686 252.655 386.786 259.022 391.048 264.059L392.575 262.768ZM386.686 245.037C386.686 233.489 391.408 224.78 400.885 218.782L399.815 217.092C389.74 223.468 384.686 232.826 384.686 245.037H386.686ZM400.888 218.78C410.582 212.6 423.125 209.47 438.588 209.47V207.47C422.866 207.47 409.917 210.652 399.812 217.094L400.888 218.78ZM438.588 209.47C454.173 209.47 466.312 212.784 475.117 219.298L476.306 217.69C467.044 210.838 454.434 207.47 438.588 207.47V209.47ZM476.503 219.105C480.423 214.031 487.882 211.326 499.285 211.326V209.326C487.672 209.326 479.414 212.066 474.92 217.882L476.503 219.105ZM440.444 260.33C448.786 260.33 455.191 259.292 459.546 257.115C461.737 256.02 463.441 254.619 464.594 252.889C465.752 251.153 466.317 249.141 466.317 246.893H464.317C464.317 248.791 463.845 250.407 462.93 251.78C462.011 253.159 460.606 254.349 458.651 255.326C454.715 257.295 448.684 258.33 440.444 258.33V260.33ZM466.317 246.893C466.317 244.646 465.752 242.634 464.594 240.898C463.441 239.167 461.737 237.767 459.546 236.672C455.191 234.494 448.786 233.457 440.444 233.457V235.457C448.684 235.457 454.715 236.492 458.651 238.46C460.606 239.438 462.011 240.628 462.93 242.007C463.845 243.38 464.317 244.996 464.317 246.893H466.317ZM440.444 233.457C432.04 233.457 425.59 234.494 421.205 236.67C418.999 237.765 417.283 239.165 416.121 240.895C414.955 242.632 414.385 244.644 414.385 246.893H416.385C416.385 244.997 416.86 243.382 417.782 242.01C418.708 240.631 420.124 239.44 422.094 238.462C426.063 236.492 432.141 235.457 440.444 235.457V233.457ZM414.385 246.893C414.385 249.143 414.955 251.155 416.121 252.892C417.283 254.622 418.999 256.022 421.205 257.117C425.59 259.293 432.04 260.33 440.444 260.33V258.33C432.141 258.33 426.063 257.295 422.094 255.325C420.124 254.347 418.708 253.156 417.782 251.777C416.86 250.405 416.385 248.79 416.385 246.893H414.385ZM527.968 221.092L528.61 221.859L528.615 221.854L527.968 221.092ZM603.886 221.092L603.234 221.85L603.244 221.859L603.886 221.092ZM603.886 293.298L603.238 292.536L603.234 292.54L603.886 293.298ZM527.968 293.484L527.32 294.246L527.326 294.251L527.968 293.484ZM548.943 274.365L548.258 275.094L548.264 275.1L548.27 275.105L548.943 274.365ZM582.911 274.365L583.584 275.105L583.59 275.1L583.596 275.094L582.911 274.365ZM582.911 240.211L582.226 240.94L582.232 240.946L582.238 240.951L582.911 240.211ZM548.943 240.211L549.615 240.951L549.621 240.946L549.627 240.94L548.943 240.211ZM514.118 257.102C514.118 241.612 518.986 229.919 528.61 221.859L527.326 220.326C517.15 228.848 512.118 241.161 512.118 257.102H514.118ZM528.615 221.854C538.301 213.621 550.741 209.47 566.02 209.47V207.47C550.362 207.47 537.434 211.734 527.32 220.33L528.615 221.854ZM566.02 209.47C581.299 209.47 593.674 213.621 603.234 221.85L604.538 220.334C594.546 211.734 581.678 207.47 566.02 207.47V209.47ZM603.244 221.859C612.868 229.919 617.736 241.612 617.736 257.102H619.736C619.736 241.161 614.704 228.848 604.528 220.326L603.244 221.859ZM617.736 257.102C617.736 272.592 612.868 284.351 603.238 292.536L604.534 294.06C614.704 285.416 619.736 273.044 619.736 257.102H617.736ZM603.234 292.54C593.674 300.769 581.299 304.92 566.02 304.92V306.92C581.678 306.92 594.546 302.657 604.538 294.056L603.234 292.54ZM566.02 304.92C550.738 304.92 538.296 300.829 528.61 292.717L527.326 294.251C537.439 302.721 550.365 306.92 566.02 306.92V304.92ZM528.615 292.722C518.988 284.538 514.118 272.719 514.118 257.102H512.118C512.118 273.165 517.148 285.6 527.32 294.246L528.615 292.722ZM541.817 257.102C541.817 264.945 543.908 271.007 548.258 275.094L549.627 273.636C545.811 270.051 543.817 264.604 543.817 257.102H541.817ZM548.27 275.105C552.591 279.033 558.552 280.934 566.02 280.934V278.934C558.885 278.934 553.462 277.122 549.615 273.625L548.27 275.105ZM566.02 280.934C573.369 280.934 579.266 279.03 583.584 275.105L582.238 273.625C578.389 277.125 573.025 278.934 566.02 278.934V280.934ZM583.596 275.094C587.946 271.007 590.037 264.945 590.037 257.102H588.037C588.037 264.604 586.043 270.051 582.226 273.636L583.596 275.094ZM590.037 257.102C590.037 249.38 587.944 243.435 583.584 239.471L582.238 240.951C586.045 244.412 588.037 249.728 588.037 257.102H590.037ZM583.596 239.482C579.279 235.427 573.377 233.457 566.02 233.457V235.457C573.017 235.457 578.376 237.323 582.226 240.94L583.596 239.482ZM566.02 233.457C558.544 233.457 552.578 235.424 548.258 239.482L549.627 240.94C553.475 237.326 558.894 235.457 566.02 235.457V233.457ZM548.27 239.471C543.91 243.435 541.817 249.38 541.817 257.102H543.817C543.817 249.728 545.808 244.412 549.615 240.951L548.27 239.471ZM698.764 271.952L699.522 272.604L699.529 272.596L698.764 271.952ZM705.632 210.326V209.326H704.632V210.326H705.632ZM735.331 210.326H736.331V209.326H735.331V210.326ZM735.331 304.064V305.064H736.331V304.064H735.331ZM705.632 304.064H704.632V305.064H705.632V304.064ZM705.632 292.741L704.683 292.425L704.632 292.579V292.741H705.632ZM711.2 276.036L712.149 276.352L712.588 275.036H711.2V276.036ZM703.776 276.036V275.036H702.973L702.799 275.819L703.776 276.036ZM691.71 297.753L692.378 298.497L692.387 298.49L691.71 297.753ZM639.922 294.226L639.163 294.877L639.169 294.884L639.922 294.226ZM629.899 210.326V209.326H628.899V210.326H629.899ZM659.598 210.326H660.598V209.326H659.598V210.326ZM663.867 274.551L663.084 275.172L663.09 275.18L663.097 275.188L663.867 274.551ZM678.902 280.934C687.782 280.934 694.71 278.197 699.522 272.604L698.006 271.3C693.661 276.35 687.348 278.934 678.902 278.934V280.934ZM699.529 272.596C704.338 266.877 706.632 257.61 706.632 245.037H704.632C704.632 257.461 702.347 266.137 697.998 271.308L699.529 272.596ZM706.632 245.037V210.326H704.632V245.037H706.632ZM705.632 211.326H735.331V209.326H705.632V211.326ZM734.331 210.326V304.064H736.331V210.326H734.331ZM735.331 303.064H705.632V305.064H735.331V303.064ZM706.632 304.064V292.741H704.632V304.064H706.632ZM706.58 293.058L712.149 276.352L710.252 275.719L704.683 292.425L706.58 293.058ZM711.2 275.036H703.776V277.036H711.2V275.036ZM702.799 275.819C700.859 284.551 696.93 291.601 691.034 297.017L692.387 298.49C698.617 292.768 702.732 285.339 704.752 276.253L702.799 275.819ZM691.042 297.009C685.193 302.262 677.648 304.92 668.322 304.92V306.92C678.053 306.92 686.101 304.134 692.378 298.497L691.042 297.009ZM668.322 304.92C656.429 304.92 647.259 301.109 640.676 293.569L639.169 294.884C646.198 302.936 655.961 306.92 668.322 306.92V304.92ZM640.682 293.576C634.207 286.021 630.899 275.211 630.899 261H628.899C628.899 275.499 632.274 286.839 639.163 294.877L640.682 293.576ZM630.899 261V210.326H628.899V261H630.899ZM629.899 211.326H659.598V209.326H629.899V211.326ZM658.598 210.326V256.36H660.598V210.326H658.598ZM658.598 256.36C658.598 264.954 660.02 271.308 663.084 275.172L664.651 273.929C662.023 270.616 660.598 264.843 660.598 256.36H658.598ZM663.097 275.188C666.338 279.104 671.707 280.934 678.902 280.934V278.934C671.991 278.934 667.337 277.175 664.638 273.913L663.097 275.188ZM798.436 279.934H797.436V280.989L798.489 280.932L798.436 279.934ZM832.961 278.077H833.961V277.022L832.907 277.079L832.961 278.077ZM832.961 304.064L832.999 305.063L833.961 305.027V304.064H832.961ZM784.514 305.92L784.539 306.92L784.552 306.92L784.514 305.92ZM772.82 302.022L773.527 301.315L773.527 301.315L772.82 302.022ZM768.736 236.313H769.736V235.313H768.736V236.313ZM746.462 236.313H745.462V237.313H746.462V236.313ZM746.462 210.326V209.326H745.462V210.326H746.462ZM768.736 210.326V211.326H769.736V210.326H768.736ZM768.736 192.693L768.438 191.738L767.736 191.957V192.693H768.736ZM798.436 183.412H799.436V182.051L798.137 182.457L798.436 183.412ZM798.436 210.326H797.436V211.326H798.436V210.326ZM829.248 210.326H830.248V209.326H829.248V210.326ZM829.248 236.313V237.313H830.248V236.313H829.248ZM798.436 236.313V235.313H797.436V236.313H798.436ZM798.489 280.932L833.015 279.076L832.907 277.079L798.382 278.935L798.489 280.932ZM831.961 278.077V304.064H833.961V278.077H831.961ZM832.923 303.065L784.476 304.921L784.552 306.92L832.999 305.063L832.923 303.065ZM784.49 304.921C779.599 305.04 776 303.788 773.527 301.315L772.113 302.73C775.085 305.702 779.282 307.048 784.539 306.92L784.49 304.921ZM773.527 301.315C771.05 298.839 769.736 295.17 769.736 290.143H767.736C767.736 295.51 769.145 299.761 772.113 302.73L773.527 301.315ZM769.736 290.143V236.313H767.736V290.143H769.736ZM768.736 235.313H746.462V237.313H768.736V235.313ZM747.462 236.313V210.326H745.462V236.313H747.462ZM746.462 211.326H768.736V209.326H746.462V211.326ZM769.736 210.326V192.693H767.736V210.326H769.736ZM769.035 193.647L798.734 184.366L798.137 182.457L768.438 191.738L769.035 193.647ZM797.436 183.412V210.326H799.436V183.412H797.436ZM798.436 211.326H829.248V209.326H798.436V211.326ZM828.248 210.326V236.313H830.248V210.326H828.248ZM829.248 235.313H798.436V237.313H829.248V235.313ZM797.436 236.313V279.934H799.436V236.313H797.436Z" fill="#FAD202" fill-opacity="0.5"/>
<mask id="path-4-inside-1" fill="white">
<path fill-rule="evenodd" clip-rule="evenodd" d="M522.485 406.507C490.943 419.696 454.473 427.226 415.616 427.226C380.268 427.226 346.894 420.994 317.41 409.94C344.86 432.17 379.824 445.487 417.899 445.487C457.895 445.487 494.458 430.793 522.485 406.507Z"/>
</mask>
<path d="M522.485 406.507L523.14 407.263L522.099 405.585L522.485 406.507ZM317.41 409.94L317.761 409.004L316.78 410.717L317.41 409.94ZM522.099 405.585C490.684 418.72 454.346 426.226 415.616 426.226V428.226C454.601 428.226 491.203 420.671 522.871 407.43L522.099 405.585ZM415.616 426.226C380.384 426.226 347.13 420.015 317.761 409.004L317.059 410.876C346.659 421.974 380.151 428.226 415.616 428.226V426.226ZM417.899 444.487C380.062 444.487 345.318 431.254 318.039 409.163L316.78 410.717C344.402 433.086 379.587 446.487 417.899 446.487V444.487ZM521.83 405.752C493.978 429.885 457.645 444.487 417.899 444.487V446.487C458.144 446.487 494.938 431.7 523.14 407.263L521.83 405.752Z" fill="#FAD202" fill-opacity="0.5" mask="url(#path-4-inside-1)"/>
</svg>
